HIERARCHY
ROOT Hips
{
    OFFSET 0.000000 0.000000 0.000000
    CHANNELS 6 Xposition Yposition Zposition Zrotation Xrotation Yrotation
        JOINT Chest
        {
            OFFSET -0.000000 31.966684 -0.000000
            CHANNELS 3 Zrotation Xrotation Yrotation
            JOINT Neck
            {
                OFFSET -0.000000 23.973995 0.000000
                CHANNELS 3 Zrotation Xrotation Yrotation
                JOINT Head
                {
                    OFFSET -0.000000 10.633333 0.000000
                    CHANNELS 3 Zrotation Xrotation Yrotation
                    End Site
                    {
                        OFFSET -0.000000 16.433334 0.000000
                    }
                }
            }
            JOINT LeftCollar
            {
                OFFSET -0.000000 23.973995 0.000000
                CHANNELS 3 Zrotation Xrotation Yrotation
                JOINT LeftShoulder
                {
                    OFFSET 19.333332 -0.000000 0.000000
                    CHANNELS 3 Zrotation Xrotation Yrotation
                    JOINT LeftElbow
                    {
                        OFFSET 20.067463 0.000000 0.000000
                        CHANNELS 3 Zrotation Xrotation Yrotation
                        JOINT LeftWrist
                        {
                            OFFSET 23.490957 0.000000 0.000000
                            CHANNELS 3 Zrotation Xrotation Yrotation
                            End Site
                            {
                                OFFSET 0.000000 -14.500000 0.000000
                            }
                        }
                    }
                }
            }
            JOINT RightCollar
            {
                OFFSET -0.000000 23.973995 0.000000
                CHANNELS 3 Zrotation Xrotation Yrotation
                JOINT RightShoulder
                {
                    OFFSET -19.333332 0.000000 0.000000
                    CHANNELS 3 Zrotation Xrotation Yrotation
                    JOINT RightElbow
                    {
                        OFFSET -20.067463 0.000000 0.000000
                        CHANNELS 3 Zrotation Xrotation Yrotation
                        JOINT RightWrist
                        {
                            OFFSET -23.490957 0.000000 0.000000
                            CHANNELS 3 Zrotation Xrotation Yrotation
                            End Site
                            {
                                OFFSET -0.000000 -14.500000 0.000000
                            }
                        }
                    }
                }
            }
        }
    JOINT LeftHip
    {
        OFFSET 11.599999 0.000000 0.000000
        CHANNELS 3 Zrotation Xrotation Yrotation
        JOINT LeftKnee
        {
            OFFSET -0.000000 -35.131119 0.000000
            CHANNELS 3 Zrotation Xrotation Yrotation
            JOINT LeftAnkle
            {
                OFFSET -0.000000 -37.839104 0.000000
                CHANNELS 3 Zrotation Xrotation Yrotation
                End Site
                {
                    OFFSET -0.000000 -4.833333 16.433334
                }
            }
        }
    }
    JOINT RightHip
    {
        OFFSET -11.599999 0.000000 0.000000
        CHANNELS 3 Zrotation Xrotation Yrotation
        JOINT RightKnee
        {
            OFFSET -0.000000 -35.131119 0.000000
            CHANNELS 3 Zrotation Xrotation Yrotation
            JOINT RightAnkle
            {
                OFFSET -0.000000 -37.839104 0.000000
                CHANNELS 3 Zrotation Xrotation Yrotation
                End Site
                {
                    OFFSET -0.000000 -4.833333 16.433334
                }
            }
        }
    }
}
MOTION
Frames:    5
Frame Time:    0.010000
-109.895538    84.102585    -67.198524    0.710949    -1.142995    28.855625    -7.684832    3.469173    4.271417    3.443435    -1.429793    5.950958    -4.451918    2.417373    6.002601    -15.311766    0.059309    -0.275000    -46.242271    37.441895    -19.373484    -13.454670    7.190312    -54.913685    116.332787    15.898986    57.595013    15.195835    0.723555    5.626999    56.222580    45.370487    22.620953    4.250072    1.128659    29.938955    -107.854507    -2.799304    24.951811    12.666126    -11.417295    3.301455    -16.254171    43.337963    13.408224    7.325458    -7.274058    37.032681    1.726927    -9.520755    2.696008    4.802289    15.682663    -7.778508    -0.976148    5.068222    -24.456095    
-109.672859    84.059715    -67.619247    0.556784    -0.642611    29.832584    -7.534686    3.323309    3.538861    3.542975    -1.798421    5.599408    -4.610610    2.334401    5.635135    -15.320482    0.087364    -0.744813    -45.984299    38.161427    -20.668381    -14.187401    7.648418    -54.451565    118.892357    17.773703    61.625351    15.107682    0.695313    5.222587    55.978096    45.117493    22.784901    4.184002    1.129907    30.374620    -107.356926    -3.254662    25.594629    13.025772    -11.082996    3.334941    -15.632282    43.197811    12.482441    6.126801    -6.795648    36.881546    0.919239    -10.039645    3.465229    6.247971    14.665061    -13.522470    -2.302423    7.972517    -21.899717    
-109.429131    84.015007    -68.074760    0.430267    -0.150744    30.755455    -7.381591    3.212471    2.892189    3.484914    -2.113169    5.426146    -4.672736    2.160271    5.448322    -15.349738    0.115753    -0.860820    -45.778244    38.735428    -21.959225    -14.716586    7.825591    -53.888012    120.667755    19.407276    65.240013    14.975933    0.711388    5.202088    55.755966    44.792473    22.888933    4.325771    1.173661    30.645094    -107.147911    -3.743075    26.507103    13.230595    -10.699986    3.224519    -14.981130    42.866730    11.554610    4.259754    -6.642261    36.905277    -0.007361    -10.687114    3.721306    7.319714    14.581068    -17.511995    -3.002336    8.231747    -19.538956    
-109.161545    83.966988    -68.561783    0.339731    0.325820    31.605070    -7.252355    3.156673    2.343473    3.436427    -2.404254    5.248879    -4.762079    1.892446    5.253827    -15.361882    0.143928    -0.982086    -45.686783    39.227779    -23.100580    -15.029024    7.805303    -53.146664    121.644966    20.644556    68.526772    14.835876    0.678785    5.192756    55.515072    44.503944    23.008802    4.331096    1.199863    30.947029    -106.966682    -4.085152    27.472305    13.278958    -10.226037    3.023659    -14.280260    42.301502    10.544718    1.812037    -6.921716    37.148296    -1.007994    -11.510447    3.460604    8.052168    15.429688    -19.872318    -2.824570    6.511059    -17.588287    
-108.868408    83.912933    -69.076180    0.290258    0.780508    32.364964    -7.153908    3.145783    1.901636    3.402260    -2.677762    5.070418    -4.857669    1.582901    5.056856    -15.357867    0.171836    -1.112707    -45.717373    39.649830    -24.059229    -15.089948    7.598139    -52.235394    121.832260    21.401587    71.504860    14.679599    0.664584    5.192276    55.247368    44.259224    23.184828    4.421258    1.231011    31.120192    -107.017662    -4.347880    28.381306    13.176767    -9.630737    2.799905    -13.513090    41.480679    9.365705    -1.004087    -7.670925    37.601879    -2.052938    -12.526667    2.759909    8.505497    17.058920    -21.028833    -1.938120    3.558835    -15.937300    
